<svg xmlns="http://www.w3.org/2000/svg" xmlns:xlink="http://www.w3.org/1999/xlink" version="1.1" width="256" height="256" viewBox="0 0 256 256" xml:space="preserve">

<defs>
</defs>
<g style="stroke: none; stroke-width: 0; stroke-dasharray: none; stroke-linecap: butt; stroke-linejoin: miter; stroke-miterlimit: 10; fill: none; fill-rule: nonzero; opacity: 1;" transform="translate(1.4065934065934016 1.4065934065934016) scale(2.81 2.81)" >
<animateTransform attributeName="transform" type="translate" from="-100 0" to="256 0" begin="0s" dur="5s" repeatCount="indefinite" />

	<path d="M 45.369 52.037 l 1.67 -2.817 l -2.427 -1.718 l -1.789 3.016 c -1.744 -0.798 -3.675 -1.255 -5.714 -1.255 c -7.606 0 -13.794 6.188 -13.794 13.794 s 6.188 13.794 13.794 13.794 c 7.606 0 13.794 -6.188 13.794 -13.794 C 50.903 58.552 48.721 54.556 45.369 52.037 z M 47.826 61.577 h -8.115 l 4.14 -6.98 C 45.972 56.291 47.438 58.763 47.826 61.577 z M 37.109 73.89 c -5.972 0 -10.831 -4.859 -10.831 -10.831 s 4.858 -10.831 10.831 -10.831 c 1.488 0 2.906 0.302 4.198 0.847 l -5.472 9.227 c -0.272 0.458 -0.277 1.027 -0.013 1.49 c 0.263 0.462 0.755 0.748 1.288 0.748 h 10.717 C 47.1 69.812 42.577 73.89 37.109 73.89 z" style="stroke: none; stroke-width: 1; stroke-dasharray: none; stroke-linecap: butt; stroke-linejoin: miter; stroke-miterlimit: 10; fill: rgb(0,0,0); fill-rule: nonzero; opacity: 1;" transform=" matrix(1 0 0 1 0 0) " stroke-linecap="round" />
	<path d="M 76.206 49.265 c -0.664 0 -1.313 0.063 -1.952 0.155 l -2.722 -10.667 l 0.545 0.018 c 0.991 0.033 1.959 -0.559 2.22 -1.516 c 0.322 -1.176 -0.382 -2.314 -1.486 -2.604 l -6.431 -1.689 c -1.165 -0.306 -2.202 -0.975 -2.96 -1.911 l -5.272 -6.504 c -1.976 -2.438 -5.703 -2.415 -7.65 0.047 l -8.679 10.982 c -1.741 2.203 -1.278 5.415 1.014 7.037 l 10.238 7.245 c 0.692 0.489 1.062 1.316 0.967 2.158 l -1.493 13.209 c 0 1.64 1.33 2.97 2.97 2.97 c 1.483 0 2.738 -1.094 2.942 -2.563 l 3.481 -16.478 c 0.328 -1.553 -0.244 -3.158 -1.481 -4.153 l -8.076 -6.497 c -0.033 -0.027 -0.037 -0.076 -0.009 -0.108 l 4.968 -5.492 c 0.03 -0.033 0.081 -0.033 0.11 0 l 3.409 3.769 c 1.03 1.139 2.478 1.81 4.013 1.861 l 3.579 0.118 c 0.004 0.019 0.004 0.038 0.008 0.056 l 0.837 3.281 H 61.44 l 0.875 0.704 c 0.786 0.632 1.412 1.404 1.862 2.26 h 3.705 l -2.903 3.228 c 0.006 0.526 -0.028 1.056 -0.14 1.586 l -0.829 3.924 l 6.447 -7.169 l 0.927 3.631 c -5.231 1.962 -8.971 6.999 -8.971 12.907 c 0 7.606 6.188 13.794 13.794 13.794 C 83.812 76.853 90 70.665 90 63.059 S 83.812 49.265 76.206 49.265 z M 76.206 73.89 c -5.972 0 -10.831 -4.859 -10.831 -10.831 c 0 -4.525 2.793 -8.407 6.743 -10.024 l 2.652 10.39 c 0.171 0.671 0.773 1.116 1.435 1.116 c 0.121 0 0.245 -0.014 0.367 -0.046 c 0.793 -0.202 1.272 -1.009 1.069 -1.802 l -2.652 -10.391 c 0.4 -0.045 0.805 -0.073 1.217 -0.073 c 5.972 0 10.831 4.859 10.831 10.831 S 82.177 73.89 76.206 73.89 z" style="stroke: none; stroke-width: 1; stroke-dasharray: none; stroke-linecap: butt; stroke-linejoin: miter; stroke-miterlimit: 10; fill: rgb(0,0,0); fill-rule: nonzero; opacity: 1;" transform=" matrix(1 0 0 1 0 0) " stroke-linecap="round" />
	<circle cx="64.625" cy="19.095" r="5.945" style="stroke: none; stroke-width: 1; stroke-dasharray: none; stroke-linecap: butt; stroke-linejoin: miter; stroke-miterlimit: 10; fill: rgb(0,0,0); fill-rule: nonzero; opacity: 1;" transform="  matrix(1 0 0 1 0 0) "/>
	<rect x="7.41" y="36.79" rx="0" ry="0" width="26.06" height="2.96" style="stroke: none; stroke-width: 1; stroke-dasharray: none; stroke-linecap: butt; stroke-linejoin: miter; stroke-miterlimit: 10; fill: rgb(0,0,0); fill-rule: nonzero; opacity: 1;" transform=" matrix(1 0 0 1 0 0) "/>
	<rect x="0" y="44.94" rx="0" ry="0" width="27.54" height="2.96" style="stroke: none; stroke-width: 1; stroke-dasharray: none; stroke-linecap: butt; stroke-linejoin: miter; stroke-miterlimit: 10; fill: rgb(0,0,0); fill-rule: nonzero; opacity: 1;" transform=" matrix(1 0 0 1 0 0) "/>
	<rect x="7.41" y="53.09" rx="0" ry="0" width="11.98" height="2.96" style="stroke: none; stroke-width: 1; stroke-dasharray: none; stroke-linecap: butt; stroke-linejoin: miter; stroke-miterlimit: 10; fill: rgb(0,0,0); fill-rule: nonzero; opacity: 1;" transform=" matrix(1 0 0 1 0 0) "/>
</g>
</svg>